<?xml version="1.0" encoding="UTF-8"?>
<svg xmlns="http://www.w3.org/2000/svg" xmlns:xlink="http://www.w3.org/1999/xlink" width="92pt" height="35pt" viewBox="0 0 92 35" version="1.1">
<defs>
<clipPath id="clip1">
  <path d="M 60.039062 1.988281 L 79.800781 1.988281 L 79.800781 21 L 60.039062 21 Z M 60.039062 1.988281 "/>
</clipPath>
<clipPath id="clip2">
  <path d="M 78.261719 5.074219 C 75.402344 1.203125 69.347656 0.945312 64.730469 4.484375 C 60.113281 8.03125 58.695312 14.039062 61.554688 17.914062 C 64.414062 21.777344 70.472656 22.042969 75.085938 18.496094 C 79.699219 14.949219 81.121094 8.941406 78.261719 5.074219 Z M 78.261719 5.074219 "/>
</clipPath>
<clipPath id="clip3">
  <path d="M 49.785156 9.574219 L 73.632812 -8.746094 L 90.128906 13.574219 L 66.28125 31.894531 Z M 49.785156 9.574219 "/>
</clipPath>
<clipPath id="clip4">
  <path d="M 78.261719 5.074219 C 75.402344 1.203125 69.347656 0.945312 64.730469 4.484375 C 60.113281 8.03125 58.695312 14.039062 61.554688 17.914062 C 64.414062 21.777344 70.472656 22.042969 75.085938 18.496094 C 79.699219 14.949219 81.121094 8.941406 78.261719 5.074219 Z M 78.261719 5.074219 "/>
</clipPath>
<clipPath id="clip5">
  <path d="M 56.425781 11.066406 L 73.125 -1.761719 L 83.480469 12.253906 L 66.785156 25.082031 Z M 56.425781 11.066406 "/>
</clipPath>
<clipPath id="clip6">
  <path d="M 60.039062 1.988281 L 79.800781 1.988281 L 79.800781 21 L 60.039062 21 Z M 60.039062 1.988281 "/>
</clipPath>
<clipPath id="clip7">
  <path d="M 78.261719 5.074219 C 75.402344 1.203125 69.347656 0.945312 64.730469 4.484375 C 60.113281 8.03125 58.695312 14.039062 61.554688 17.914062 C 64.414062 21.777344 70.472656 22.042969 75.085938 18.496094 C 79.699219 14.949219 81.121094 8.941406 78.261719 5.074219 Z M 78.261719 5.074219 "/>
</clipPath>
<clipPath id="clip8">
  <path d="M 49.785156 9.574219 L 73.632812 -8.746094 L 90.128906 13.574219 L 66.28125 31.894531 Z M 49.785156 9.574219 "/>
</clipPath>
<clipPath id="clip9">
  <path d="M 78.261719 5.074219 C 75.402344 1.203125 69.347656 0.945312 64.730469 4.484375 C 60.113281 8.03125 58.695312 14.039062 61.554688 17.914062 C 64.414062 21.777344 70.472656 22.042969 75.085938 18.496094 C 79.699219 14.949219 81.121094 8.941406 78.261719 5.074219 Z M 78.261719 5.074219 "/>
</clipPath>
<clipPath id="clip10">
  <path d="M 58.804688 19.484375 L 64.566406 -1.007812 L 81.121094 3.832031 L 75.355469 24.320312 Z M 58.804688 19.484375 "/>
</clipPath>
<clipPath id="clip11">
  <path d="M 60.039062 1.988281 L 79.800781 1.988281 L 79.800781 21 L 60.039062 21 Z M 60.039062 1.988281 "/>
</clipPath>
<clipPath id="clip12">
  <path d="M 78.261719 5.074219 C 75.402344 1.203125 69.347656 0.945312 64.730469 4.484375 C 60.113281 8.03125 58.695312 14.039062 61.554688 17.914062 C 64.414062 21.777344 70.472656 22.042969 75.085938 18.496094 C 79.699219 14.949219 81.121094 8.941406 78.261719 5.074219 Z M 78.261719 5.074219 "/>
</clipPath>
<clipPath id="clip13">
  <path d="M 49.785156 9.574219 L 73.632812 -8.746094 L 90.128906 13.574219 L 66.28125 31.894531 Z M 49.785156 9.574219 "/>
</clipPath>
<clipPath id="clip14">
  <path d="M 78.261719 5.074219 C 75.402344 1.203125 69.347656 0.945312 64.730469 4.484375 C 60.113281 8.03125 58.695312 14.039062 61.554688 17.914062 C 64.414062 21.777344 70.472656 22.042969 75.085938 18.496094 C 79.699219 14.949219 81.121094 8.941406 78.261719 5.074219 Z M 78.261719 5.074219 "/>
</clipPath>
<clipPath id="clip15">
  <path d="M 56.425781 11.066406 L 73.125 -1.761719 L 83.480469 12.253906 L 66.785156 25.082031 Z M 56.425781 11.066406 "/>
</clipPath>
<clipPath id="clip16">
  <path d="M 60.039062 1.988281 L 79.800781 1.988281 L 79.800781 21 L 60.039062 21 Z M 60.039062 1.988281 "/>
</clipPath>
<clipPath id="clip17">
  <path d="M 78.261719 5.074219 C 75.402344 1.203125 69.347656 0.945312 64.730469 4.484375 C 60.113281 8.03125 58.695312 14.039062 61.554688 17.914062 C 64.414062 21.777344 70.472656 22.042969 75.085938 18.496094 C 79.699219 14.949219 81.121094 8.941406 78.261719 5.074219 Z M 78.261719 5.074219 "/>
</clipPath>
<clipPath id="clip18">
  <path d="M 49.785156 9.574219 L 73.632812 -8.746094 L 90.128906 13.574219 L 66.28125 31.894531 Z M 49.785156 9.574219 "/>
</clipPath>
<clipPath id="clip19">
  <path d="M 78.261719 5.074219 C 75.402344 1.203125 69.347656 0.945312 64.730469 4.484375 C 60.113281 8.03125 58.695312 14.039062 61.554688 17.914062 C 64.414062 21.777344 70.472656 22.042969 75.085938 18.496094 C 79.699219 14.949219 81.121094 8.941406 78.261719 5.074219 Z M 78.261719 5.074219 "/>
</clipPath>
<clipPath id="clip20">
  <path d="M 58.804688 19.484375 L 64.566406 -1.007812 L 81.121094 3.832031 L 75.355469 24.320312 Z M 58.804688 19.484375 "/>
</clipPath>
<clipPath id="clip21">
  <path d="M 60.039062 1.988281 L 79.800781 1.988281 L 79.800781 21 L 60.039062 21 Z M 60.039062 1.988281 "/>
</clipPath>
<clipPath id="clip22">
  <path d="M 78.261719 5.074219 C 75.402344 1.203125 69.347656 0.945312 64.730469 4.484375 C 60.113281 8.03125 58.695312 14.039062 61.554688 17.914062 C 64.414062 21.777344 70.472656 22.042969 75.085938 18.496094 C 79.699219 14.949219 81.121094 8.941406 78.261719 5.074219 Z M 78.261719 5.074219 "/>
</clipPath>
<clipPath id="clip23">
  <path d="M 49.785156 9.574219 L 73.632812 -8.746094 L 90.128906 13.574219 L 66.28125 31.894531 Z M 49.785156 9.574219 "/>
</clipPath>
<clipPath id="clip24">
  <path d="M 78.261719 5.074219 C 75.402344 1.203125 69.347656 0.945312 64.730469 4.484375 C 60.113281 8.03125 58.695312 14.039062 61.554688 17.914062 C 64.414062 21.777344 70.472656 22.042969 75.085938 18.496094 C 79.699219 14.949219 81.121094 8.941406 78.261719 5.074219 Z M 78.261719 5.074219 "/>
</clipPath>
<clipPath id="clip25">
  <path d="M 60.039062 1.988281 L 79.800781 1.988281 L 79.800781 21 L 60.039062 21 Z M 60.039062 1.988281 "/>
</clipPath>
<clipPath id="clip26">
  <path d="M 78.261719 5.074219 C 75.402344 1.203125 69.347656 0.945312 64.730469 4.484375 C 60.113281 8.03125 58.695312 14.039062 61.554688 17.914062 C 64.414062 21.777344 70.472656 22.042969 75.085938 18.496094 C 79.699219 14.949219 81.121094 8.941406 78.261719 5.074219 Z M 78.261719 5.074219 "/>
</clipPath>
<clipPath id="clip27">
  <path d="M 49.785156 9.574219 L 73.632812 -8.746094 L 90.128906 13.574219 L 66.28125 31.894531 Z M 49.785156 9.574219 "/>
</clipPath>
<clipPath id="clip28">
  <path d="M 65 6 L 76 6 L 76 16.992188 L 65 16.992188 Z M 65 6 "/>
</clipPath>
<clipPath id="clip29">
  <path d="M 78.261719 5.074219 C 75.402344 1.203125 69.347656 0.945312 64.730469 4.484375 C 60.113281 8.03125 58.695312 14.039062 61.554688 17.914062 C 64.414062 21.777344 70.472656 22.042969 75.085938 18.496094 C 79.699219 14.949219 81.121094 8.941406 78.261719 5.074219 Z M 78.261719 5.074219 "/>
</clipPath>
<clipPath id="clip30">
  <path d="M 49.785156 9.574219 L 73.632812 -8.746094 L 90.128906 13.574219 L 66.28125 31.894531 Z M 49.785156 9.574219 "/>
</clipPath>
</defs>
<g id="surface1">
<path style=" stroke:none;fill-rule:nonzero;fill:rgb(0%,0%,0%);fill-opacity:1;" d="M 47.46875 11.511719 L 51.839844 11.222656 C 51.9375 11.953125 52.125 12.496094 52.417969 12.882812 C 52.902344 13.492188 53.570312 13.800781 54.449219 13.800781 C 55.097656 13.800781 55.609375 13.648438 55.957031 13.324219 C 56.289062 13.070312 56.488281 12.660156 56.488281 12.242188 C 56.488281 11.835938 56.308594 11.441406 55.992188 11.195312 C 55.660156 10.886719 54.882812 10.582031 53.652344 10.3125 C 51.640625 9.859375 50.199219 9.242188 49.347656 8.46875 C 48.5 7.738281 48.019531 6.667969 48.054688 5.539062 C 48.054688 4.757812 48.289062 3.976562 48.722656 3.332031 C 49.21875 2.605469 49.898438 2.03125 50.710938 1.710938 C 51.589844 1.320312 52.820312 1.113281 54.367188 1.113281 C 56.257812 1.113281 57.707031 1.472656 58.695312 2.203125 C 59.695312 2.914062 60.292969 4.0625 60.476562 5.640625 L 56.160156 5.890625 C 56.042969 5.210938 55.808594 4.722656 55.433594 4.40625 C 55.042969 4.078125 54.550781 3.925781 53.898438 3.925781 C 53.371094 3.925781 52.96875 4.046875 52.703125 4.269531 C 52.453125 4.464844 52.289062 4.773438 52.308594 5.113281 C 52.308594 5.367188 52.4375 5.605469 52.636719 5.761719 C 52.855469 5.957031 53.371094 6.144531 54.179688 6.316406 C 56.195312 6.753906 57.621094 7.191406 58.5 7.652344 C 59.378906 8.109375 60.007812 8.667969 60.394531 9.328125 C 60.792969 10.003906 60.988281 10.78125 60.972656 11.578125 C 60.972656 12.53125 60.707031 13.476562 60.175781 14.269531 C 59.628906 15.101562 58.863281 15.746094 57.96875 16.132812 C 57.023438 16.5625 55.828125 16.777344 54.402344 16.777344 C 51.875 16.777344 50.128906 16.285156 49.152344 15.292969 C 48.171875 14.289062 47.589844 13.039062 47.46875 11.511719 Z M 1.128906 16.527344 L 1.128906 1.386719 L 8.785156 1.386719 C 10.195312 1.386719 11.292969 1.507812 12.035156 1.757812 C 12.769531 1.996094 13.417969 2.488281 13.847656 3.148438 C 14.328125 3.875 14.566406 4.722656 14.546875 5.605469 C 14.597656 7.097656 13.847656 8.515625 12.570312 9.257812 C 12.074219 9.550781 11.523438 9.753906 10.960938 9.859375 C 11.378906 9.96875 11.789062 10.171875 12.160156 10.414062 C 12.4375 10.648438 12.671875 10.917969 12.886719 11.210938 C 13.136719 11.496094 13.347656 11.820312 13.535156 12.15625 L 15.757812 16.542969 L 10.546875 16.542969 L 8.089844 11.886719 C 7.773438 11.289062 7.503906 10.902344 7.261719 10.714844 C 6.925781 10.480469 6.523438 10.363281 6.125 10.363281 L 5.730469 10.363281 L 5.730469 16.507812 L 1.128906 16.507812 Z M 5.730469 7.515625 L 7.671875 7.515625 C 8.089844 7.484375 8.484375 7.414062 8.882812 7.3125 C 9.183594 7.257812 9.449219 7.097656 9.632812 6.839844 C 10.082031 6.230469 10.015625 5.367188 9.464844 4.84375 C 9.167969 4.585938 8.585938 4.449219 7.757812 4.449219 L 5.730469 4.449219 Z M 0.0859375 29.496094 L 4.449219 29.203125 C 4.550781 29.933594 4.730469 30.472656 5.03125 30.863281 C 5.5 31.472656 6.175781 31.792969 7.058594 31.792969 C 7.707031 31.792969 8.222656 31.644531 8.570312 31.320312 C 8.898438 31.050781 9.101562 30.660156 9.101562 30.242188 C 9.101562 29.828125 8.917969 29.441406 8.605469 29.1875 C 8.273438 28.886719 7.488281 28.578125 6.242188 28.308594 C 4.238281 27.851562 2.789062 27.242188 1.945312 26.460938 C 1.097656 25.730469 0.617188 24.671875 0.648438 23.535156 C 0.648438 22.757812 0.882812 21.976562 1.3125 21.332031 C 1.8125 20.605469 2.488281 20.03125 3.304688 19.707031 C 4.1875 19.320312 5.414062 19.113281 6.960938 19.113281 C 8.851562 19.113281 10.296875 19.46875 11.292969 20.195312 C 12.289062 20.925781 12.867188 22.0625 13.054688 23.632812 L 8.734375 23.890625 C 8.617188 23.210938 8.382812 22.722656 8.003906 22.398438 C 7.636719 22.078125 7.125 21.925781 6.480469 21.941406 C 5.949219 21.941406 5.546875 22.0625 5.277344 22.292969 C 5.015625 22.5 4.863281 22.804688 4.882812 23.144531 C 4.882812 23.402344 5.015625 23.632812 5.214844 23.785156 C 5.429688 23.992188 5.949219 24.175781 6.761719 24.34375 C 8.769531 24.789062 10.195312 25.226562 11.074219 25.679688 C 11.957031 26.144531 12.585938 26.699219 12.972656 27.359375 C 13.367188 28.035156 13.566406 28.816406 13.566406 29.59375 C 13.566406 30.542969 13.28125 31.472656 12.769531 32.269531 C 12.222656 33.097656 11.457031 33.742188 10.5625 34.132812 C 9.617188 34.554688 8.417969 34.777344 6.992188 34.777344 C 4.46875 34.777344 2.722656 34.285156 1.746094 33.285156 C 0.765625 32.269531 0.21875 31.015625 0.0859375 29.496094 Z M 0.0859375 29.496094 "/>
<path style=" stroke:none;fill-rule:nonzero;fill:rgb(0%,0%,0%);fill-opacity:1;" d="M 22.167969 28.308594 L 26.1875 29.546875 C 25.96875 30.574219 25.523438 31.558594 24.910156 32.421875 C 24.34375 33.179688 23.59375 33.777344 22.75 34.167969 C 21.882812 34.554688 20.789062 34.757812 19.464844 34.757812 C 17.851562 34.757812 16.523438 34.519531 15.507812 34.046875 C 14.484375 33.574219 13.601562 32.726562 12.851562 31.523438 C 12.105469 30.324219 11.742188 28.78125 11.742188 26.902344 C 11.742188 24.394531 12.386719 22.464844 13.699219 21.128906 C 15.015625 19.792969 16.851562 19.113281 19.246094 19.113281 C 21.125 19.113281 22.582031 19.5 23.664062 20.265625 C 24.726562 21.042969 25.523438 22.226562 26.054688 23.820312 L 22 24.738281 C 21.902344 24.375 21.75 24.023438 21.550781 23.714844 C 21.304688 23.367188 20.984375 23.09375 20.605469 22.890625 C 20.226562 22.6875 19.792969 22.601562 19.363281 22.601562 C 18.316406 22.601562 17.519531 23.023438 16.972656 23.890625 C 16.558594 24.515625 16.339844 25.511719 16.339844 26.867188 C 16.339844 28.542969 16.589844 29.695312 17.089844 30.324219 C 17.589844 30.945312 18.28125 31.25 19.191406 31.25 C 20.078125 31.25 20.738281 31 21.191406 30.507812 C 21.636719 29.984375 21.96875 29.253906 22.167969 28.308594 Z M 31.546875 19.371094 L 36.136719 19.371094 L 36.136719 24.671875 L 41.144531 24.671875 L 41.144531 19.371094 L 45.761719 19.371094 L 45.761719 34.503906 L 41.144531 34.503906 L 41.144531 28.375 L 36.136719 28.375 L 36.136719 34.503906 L 31.546875 34.503906 Z M 31.546875 19.371094 "/>
<path style=" stroke:none;fill-rule:nonzero;fill:rgb(0%,0%,0%);fill-opacity:1;" d="M 45.136719 26.9375 C 45.136719 24.460938 45.8125 22.535156 47.160156 21.164062 C 48.5 19.792969 50.398438 19.097656 52.804688 19.097656 C 55.277344 19.097656 57.175781 19.773438 58.519531 21.128906 C 59.863281 22.484375 60.527344 24.375 60.527344 26.820312 C 60.527344 28.59375 60.226562 30.035156 59.644531 31.164062 C 59.078125 32.285156 58.203125 33.199219 57.121094 33.8125 C 56.003906 34.433594 54.628906 34.757812 52.984375 34.757812 C 51.3125 34.757812 49.933594 34.488281 48.832031 33.945312 C 47.710938 33.371094 46.773438 32.46875 46.164062 31.371094 C 45.480469 30.1875 45.136719 28.714844 45.136719 26.9375 Z M 49.714844 26.953125 C 49.714844 28.472656 50.003906 29.578125 50.546875 30.253906 C 51.09375 30.917969 51.859375 31.25 52.820312 31.25 C 53.800781 31.25 54.566406 30.929688 55.109375 30.269531 C 55.660156 29.609375 55.925781 28.441406 55.925781 26.753906 C 55.925781 25.332031 55.644531 24.277344 55.078125 23.632812 C 54.515625 22.972656 53.75 22.65625 52.785156 22.65625 C 51.9375 22.621094 51.125 22.988281 50.558594 23.648438 C 50.003906 24.308594 49.714844 25.414062 49.714844 26.953125 Z M 65.226562 26.9375 C 65.226562 24.460938 65.90625 22.535156 67.25 21.164062 C 68.59375 19.792969 70.488281 19.097656 72.898438 19.097656 C 75.371094 19.097656 77.28125 19.773438 78.609375 21.128906 C 79.933594 22.484375 80.621094 24.375 80.621094 26.820312 C 80.621094 28.59375 80.320312 30.035156 79.738281 31.164062 C 79.171875 32.285156 78.292969 33.199219 77.214844 33.8125 C 76.101562 34.433594 74.726562 34.757812 73.078125 34.757812 C 71.398438 34.757812 70.023438 34.488281 68.929688 33.945312 C 67.796875 33.371094 66.867188 32.46875 66.253906 31.371094 C 65.574219 30.1875 65.226562 28.714844 65.226562 26.9375 Z M 69.808594 26.953125 C 69.808594 28.472656 70.089844 29.578125 70.636719 30.253906 C 71.1875 30.917969 71.949219 31.25 72.914062 31.25 C 73.894531 31.25 74.660156 30.929688 75.207031 30.269531 C 75.753906 29.609375 76.019531 28.441406 76.019531 26.753906 C 76.019531 25.332031 75.734375 24.277344 75.171875 23.632812 C 74.609375 22.972656 73.84375 22.65625 72.882812 22.65625 C 72.035156 22.621094 71.199219 22.988281 70.65625 23.648438 C 70.089844 24.308594 69.808594 25.414062 69.808594 26.953125 Z M 69.808594 26.953125 "/>
<path style=" stroke:none;fill-rule:nonzero;fill:rgb(0%,0%,0%);fill-opacity:1;" d="M 80.132812 19.371094 L 84.71875 19.371094 L 84.71875 30.78125 L 91.875 30.78125 L 91.875 34.503906 L 80.125 34.503906 L 80.125 19.371094 Z M 80.132812 19.371094 "/>
<path style=" stroke:none;fill-rule:nonzero;fill:rgb(100%,100%,100%);fill-opacity:1;" d="M 78.261719 5.074219 C 75.402344 1.203125 69.347656 0.945312 64.730469 4.484375 C 60.113281 8.03125 58.695312 14.039062 61.554688 17.914062 C 64.414062 21.777344 70.472656 22.042969 75.085938 18.496094 C 79.699219 14.949219 81.121094 8.941406 78.261719 5.074219 Z M 78.261719 5.074219 "/>
<g clip-path="url(#clip1)" clip-rule="nonzero">
<g clip-path="url(#clip2)" clip-rule="nonzero">
<path style=" stroke:none;fill-rule:nonzero;fill:rgb(100%,100%,100%);fill-opacity:1;" d="M 49.785156 9.574219 L 73.632812 -8.746094 L 90.128906 13.574219 L 66.28125 31.894531 Z M 49.785156 9.574219 "/>
<g clip-path="url(#clip3)" clip-rule="nonzero">
<path style=" stroke:none;fill-rule:nonzero;fill:rgb(100%,100%,100%);fill-opacity:1;" d="M 78.261719 5.074219 C 75.402344 1.203125 69.347656 0.945312 64.730469 4.484375 C 60.113281 8.03125 58.695312 14.039062 61.554688 17.914062 C 64.414062 21.777344 70.472656 22.042969 75.085938 18.496094 C 79.699219 14.949219 81.121094 8.941406 78.261719 5.074219 Z M 78.261719 5.074219 "/>
<g clip-path="url(#clip4)" clip-rule="nonzero">
<path style=" stroke:none;fill-rule:nonzero;fill:rgb(100%,100%,100%);fill-opacity:1;" d="M 56.425781 11.066406 L 73.125 -1.761719 L 83.480469 12.253906 L 66.785156 25.082031 Z M 56.425781 11.066406 "/>
<g clip-path="url(#clip5)" clip-rule="nonzero">
<path style="fill-rule:nonzero;fill:rgb(100%,100%,100%);fill-opacity:1;stroke-width:4;stroke-linecap:butt;stroke-linejoin:miter;stroke:rgb(0%,0%,0%);stroke-opacity:1;stroke-miterlimit:10;" d="M 483.487975 67.907065 C 483.496498 39.283123 455.292536 16.122482 420.505278 16.082263 C 385.690248 16.078897 357.500103 39.297726 357.505466 67.903242 C 357.510829 96.508758 385.705807 119.720409 420.502049 119.709618 C 455.298292 119.698826 483.493338 96.512581 483.487975 67.907065 Z M 483.487975 67.907065 " transform="matrix(0.132611,-0.101891,0.099934,0.135209,7.359736,45.155508)"/>
</g>
</g>
</g>
</g>
</g>
<g clip-path="url(#clip6)" clip-rule="nonzero">
<g clip-path="url(#clip7)" clip-rule="nonzero">
<g clip-path="url(#clip8)" clip-rule="nonzero">
<g clip-path="url(#clip9)" clip-rule="nonzero">
<g clip-path="url(#clip10)" clip-rule="nonzero">
<path style="fill:none;stroke-width:4;stroke-linecap:butt;stroke-linejoin:miter;stroke:rgb(0%,0%,0%);stroke-opacity:1;stroke-miterlimit:10;" d="M 357.788716 17.015541 L 483.687381 17.012111 L 483.690775 120.671822 L 357.79211 120.675252 Z M 357.788716 17.015541 " transform="matrix(0.132612,-0.101889,0.099932,0.135211,7.278359,45.220367)"/>
</g>
</g>
</g>
</g>
</g>
<g clip-path="url(#clip11)" clip-rule="nonzero">
<g clip-path="url(#clip12)" clip-rule="nonzero">
<g clip-path="url(#clip13)" clip-rule="nonzero">
<g clip-path="url(#clip14)" clip-rule="nonzero">
<path style="fill:none;stroke-width:4;stroke-linecap:butt;stroke-linejoin:miter;stroke:rgb(0%,0%,0%);stroke-opacity:1;stroke-miterlimit:10;" d="M 483.487975 67.907065 C 483.496498 39.283123 455.292536 16.122482 420.505278 16.082263 C 385.690248 16.078897 357.500103 39.297726 357.505466 67.903242 C 357.510829 96.508758 385.705807 119.720409 420.502049 119.709618 C 455.298292 119.698826 483.493338 96.512581 483.487975 67.907065 Z M 483.487975 67.907065 " transform="matrix(0.132611,-0.101891,0.099934,0.135209,7.359736,45.155508)"/>
<path style=" stroke:none;fill-rule:nonzero;fill:rgb(100%,100%,100%);fill-opacity:1;" d="M 56.425781 11.066406 L 73.125 -1.761719 L 83.480469 12.253906 L 66.785156 25.082031 Z M 56.425781 11.066406 "/>
<g clip-path="url(#clip15)" clip-rule="nonzero">
<path style="fill-rule:nonzero;fill:rgb(100%,100%,100%);fill-opacity:1;stroke-width:4;stroke-linecap:butt;stroke-linejoin:miter;stroke:rgb(0%,0%,0%);stroke-opacity:1;stroke-miterlimit:10;" d="M 483.487975 67.907065 C 483.496498 39.283123 455.292536 16.122482 420.505278 16.082263 C 385.690248 16.078897 357.500103 39.297726 357.505466 67.903242 C 357.510829 96.508758 385.705807 119.720409 420.502049 119.709618 C 455.298292 119.698826 483.493338 96.512581 483.487975 67.907065 Z M 483.487975 67.907065 " transform="matrix(0.132611,-0.101891,0.099934,0.135209,7.359736,45.155508)"/>
</g>
</g>
</g>
</g>
</g>
<g clip-path="url(#clip16)" clip-rule="nonzero">
<g clip-path="url(#clip17)" clip-rule="nonzero">
<g clip-path="url(#clip18)" clip-rule="nonzero">
<g clip-path="url(#clip19)" clip-rule="nonzero">
<g clip-path="url(#clip20)" clip-rule="nonzero">
<path style="fill:none;stroke-width:4;stroke-linecap:butt;stroke-linejoin:miter;stroke:rgb(0%,0%,0%);stroke-opacity:1;stroke-miterlimit:10;" d="M 357.788716 17.015541 L 483.687381 17.012111 L 483.690775 120.671822 L 357.79211 120.675252 Z M 357.788716 17.015541 " transform="matrix(0.132612,-0.101889,0.099932,0.135211,7.278359,45.220367)"/>
</g>
</g>
</g>
</g>
</g>
<g clip-path="url(#clip21)" clip-rule="nonzero">
<g clip-path="url(#clip22)" clip-rule="nonzero">
<g clip-path="url(#clip23)" clip-rule="nonzero">
<g clip-path="url(#clip24)" clip-rule="nonzero">
<path style="fill:none;stroke-width:4;stroke-linecap:butt;stroke-linejoin:miter;stroke:rgb(0%,0%,0%);stroke-opacity:1;stroke-miterlimit:10;" d="M 330.888683 -14.197198 L 510.710249 -14.183555 L 510.705561 150.892535 L 330.883996 150.878891 Z M 330.888683 -14.197198 " transform="matrix(0.132611,-0.101891,0.099934,0.135209,7.324506,45.208315)"/>
</g>
</g>
</g>
</g>
<g clip-path="url(#clip25)" clip-rule="nonzero">
<g clip-path="url(#clip26)" clip-rule="nonzero">
<g clip-path="url(#clip27)" clip-rule="nonzero">
<path style="fill:none;stroke-width:4;stroke-linecap:butt;stroke-linejoin:miter;stroke:rgb(0%,0%,0%);stroke-opacity:1;stroke-miterlimit:10;" d="M 483.487975 67.907065 C 483.496498 39.283123 455.292536 16.122482 420.505278 16.082263 C 385.690248 16.078897 357.500103 39.297726 357.505466 67.903242 C 357.510829 96.508758 385.705807 119.720409 420.502049 119.709618 C 455.298292 119.698826 483.493338 96.512581 483.487975 67.907065 Z M 483.487975 67.907065 " transform="matrix(0.132611,-0.101891,0.099934,0.135209,7.359736,45.155508)"/>
</g>
</g>
</g>
<g clip-path="url(#clip28)" clip-rule="nonzero">
<g clip-path="url(#clip29)" clip-rule="nonzero">
<g clip-path="url(#clip30)" clip-rule="nonzero">
<path style=" stroke:none;fill-rule:nonzero;fill:rgb(0%,0%,0%);fill-opacity:1;" d="M 65.242188 10.382812 L 66.902344 9.191406 L 68.945312 12.15625 C 69.296875 12.628906 69.558594 13.140625 69.761719 13.699219 C 69.871094 14.117188 69.84375 14.578125 69.675781 14.984375 C 69.457031 15.488281 69.105469 15.917969 68.644531 16.21875 C 68.09375 16.613281 67.632812 16.828125 67.234375 16.894531 C 66.851562 16.964844 66.453125 16.894531 66.085938 16.726562 C 65.691406 16.527344 65.34375 16.234375 65.074219 15.867188 L 66.5 14.511719 C 66.621094 14.695312 66.765625 14.863281 66.9375 15 C 67.050781 15.085938 67.183594 15.140625 67.332031 15.140625 C 67.449219 15.140625 67.566406 15.085938 67.648438 15.015625 C 67.8125 14.914062 67.933594 14.707031 67.917969 14.511719 C 67.863281 14.21875 67.75 13.9375 67.566406 13.714844 Z M 70.222656 12.257812 L 71.730469 11.042969 C 71.902344 11.242188 72.117188 11.390625 72.347656 11.476562 C 72.679688 11.578125 73.027344 11.511719 73.3125 11.289062 C 73.507812 11.160156 73.679688 10.972656 73.742188 10.734375 C 73.84375 10.433594 73.679688 10.089844 73.378906 9.988281 C 73.328125 9.96875 73.277344 9.949219 73.230469 9.949219 C 73.027344 9.933594 72.679688 10.019531 72.164062 10.242188 C 71.316406 10.597656 70.65625 10.734375 70.15625 10.679688 C 69.675781 10.628906 69.230469 10.382812 68.960938 9.949219 C 68.761719 9.667969 68.660156 9.328125 68.644531 8.992188 C 68.644531 8.597656 68.746094 8.210938 68.960938 7.886719 C 69.277344 7.429688 69.65625 7.042969 70.125 6.738281 C 70.820312 6.25 71.433594 6.007812 71.964844 6.007812 C 72.496094 6.007812 72.996094 6.265625 73.457031 6.789062 L 71.964844 7.992188 C 71.664062 7.601562 71.105469 7.515625 70.722656 7.820312 L 70.671875 7.867188 C 70.503906 7.972656 70.386719 8.125 70.324219 8.3125 C 70.273438 8.453125 70.304688 8.597656 70.386719 8.71875 C 70.453125 8.804688 70.554688 8.871094 70.671875 8.871094 C 70.804688 8.890625 71.035156 8.820312 71.371094 8.667969 C 72.199219 8.3125 72.828125 8.109375 73.261719 8.039062 C 73.628906 7.972656 74.003906 8.003906 74.355469 8.160156 C 74.675781 8.296875 74.941406 8.53125 75.121094 8.820312 C 75.351562 9.164062 75.488281 9.566406 75.503906 9.988281 C 75.515625 10.433594 75.402344 10.851562 75.171875 11.222656 C 74.871094 11.683594 74.488281 12.070312 74.042969 12.378906 C 73.128906 13.019531 72.382812 13.289062 71.785156 13.191406 C 71.136719 13.089844 70.609375 12.746094 70.222656 12.257812 Z M 70.222656 12.257812 "/>
</g>
</g>
</g>
</g>
</svg>
