<?xml version="1.0" encoding="UTF-8"?>
<svg xmlns="http://www.w3.org/2000/svg" xmlns:xlink="http://www.w3.org/1999/xlink" width="94pt" height="35pt" viewBox="0 0 94 35" version="1.1">
<defs>
<clipPath id="clip1">
  <path d="M 61.472656 2 L 81.707031 2 L 81.707031 21.875 L 61.472656 21.875 Z M 61.472656 2 "/>
</clipPath>
<clipPath id="clip2">
  <path d="M 80.128906 5.128906 C 77.203125 1.21875 71.003906 0.953125 66.277344 4.539062 C 61.550781 8.125 60.097656 14.203125 63.023438 18.117188 C 65.949219 22.027344 72.15625 22.292969 76.878906 18.707031 C 81.601562 15.121094 83.058594 9.042969 80.128906 5.128906 Z M 80.128906 5.128906 "/>
</clipPath>
<clipPath id="clip3">
  <path d="M 50.976562 9.683594 L 75.390625 -8.847656 L 92.28125 13.730469 L 67.867188 32.261719 Z M 50.976562 9.683594 "/>
</clipPath>
<clipPath id="clip4">
  <path d="M 80.128906 5.128906 C 77.203125 1.21875 71.003906 0.953125 66.277344 4.539062 C 61.550781 8.125 60.097656 14.203125 63.023438 18.117188 C 65.949219 22.027344 72.15625 22.292969 76.878906 18.707031 C 81.601562 15.121094 83.058594 9.042969 80.128906 5.128906 Z M 80.128906 5.128906 "/>
</clipPath>
<clipPath id="clip5">
  <path d="M 57.773438 11.191406 L 74.871094 -1.785156 L 85.476562 12.394531 L 68.382812 25.371094 Z M 57.773438 11.191406 "/>
</clipPath>
<clipPath id="clip6">
  <path d="M 61.472656 2 L 81.707031 2 L 81.707031 21.875 L 61.472656 21.875 Z M 61.472656 2 "/>
</clipPath>
<clipPath id="clip7">
  <path d="M 80.128906 5.128906 C 77.203125 1.21875 71.003906 0.953125 66.277344 4.539062 C 61.550781 8.125 60.097656 14.203125 63.023438 18.117188 C 65.949219 22.027344 72.15625 22.292969 76.878906 18.707031 C 81.601562 15.121094 83.058594 9.042969 80.128906 5.128906 Z M 80.128906 5.128906 "/>
</clipPath>
<clipPath id="clip8">
  <path d="M 50.976562 9.683594 L 75.390625 -8.847656 L 92.28125 13.730469 L 67.867188 32.261719 Z M 50.976562 9.683594 "/>
</clipPath>
<clipPath id="clip9">
  <path d="M 80.128906 5.128906 C 77.203125 1.21875 71.003906 0.953125 66.277344 4.539062 C 61.550781 8.125 60.097656 14.203125 63.023438 18.117188 C 65.949219 22.027344 72.15625 22.292969 76.878906 18.707031 C 81.601562 15.121094 83.058594 9.042969 80.128906 5.128906 Z M 80.128906 5.128906 "/>
</clipPath>
<clipPath id="clip10">
  <path d="M 60.210938 19.707031 L 66.109375 -1.015625 L 83.058594 3.878906 L 77.15625 24.601562 Z M 60.210938 19.707031 "/>
</clipPath>
<clipPath id="clip11">
  <path d="M 61.472656 2 L 81.707031 2 L 81.707031 21.875 L 61.472656 21.875 Z M 61.472656 2 "/>
</clipPath>
<clipPath id="clip12">
  <path d="M 80.128906 5.128906 C 77.203125 1.21875 71.003906 0.953125 66.277344 4.539062 C 61.550781 8.125 60.097656 14.203125 63.023438 18.117188 C 65.949219 22.027344 72.15625 22.292969 76.878906 18.707031 C 81.601562 15.121094 83.058594 9.042969 80.128906 5.128906 Z M 80.128906 5.128906 "/>
</clipPath>
<clipPath id="clip13">
  <path d="M 50.976562 9.683594 L 75.390625 -8.847656 L 92.28125 13.730469 L 67.867188 32.261719 Z M 50.976562 9.683594 "/>
</clipPath>
<clipPath id="clip14">
  <path d="M 80.128906 5.128906 C 77.203125 1.21875 71.003906 0.953125 66.277344 4.539062 C 61.550781 8.125 60.097656 14.203125 63.023438 18.117188 C 65.949219 22.027344 72.15625 22.292969 76.878906 18.707031 C 81.601562 15.121094 83.058594 9.042969 80.128906 5.128906 Z M 80.128906 5.128906 "/>
</clipPath>
<clipPath id="clip15">
  <path d="M 57.773438 11.191406 L 74.871094 -1.785156 L 85.476562 12.394531 L 68.382812 25.371094 Z M 57.773438 11.191406 "/>
</clipPath>
<clipPath id="clip16">
  <path d="M 61.472656 2 L 81.707031 2 L 81.707031 21.875 L 61.472656 21.875 Z M 61.472656 2 "/>
</clipPath>
<clipPath id="clip17">
  <path d="M 80.128906 5.128906 C 77.203125 1.21875 71.003906 0.953125 66.277344 4.539062 C 61.550781 8.125 60.097656 14.203125 63.023438 18.117188 C 65.949219 22.027344 72.15625 22.292969 76.878906 18.707031 C 81.601562 15.121094 83.058594 9.042969 80.128906 5.128906 Z M 80.128906 5.128906 "/>
</clipPath>
<clipPath id="clip18">
  <path d="M 50.976562 9.683594 L 75.390625 -8.847656 L 92.28125 13.730469 L 67.867188 32.261719 Z M 50.976562 9.683594 "/>
</clipPath>
<clipPath id="clip19">
  <path d="M 80.128906 5.128906 C 77.203125 1.21875 71.003906 0.953125 66.277344 4.539062 C 61.550781 8.125 60.097656 14.203125 63.023438 18.117188 C 65.949219 22.027344 72.15625 22.292969 76.878906 18.707031 C 81.601562 15.121094 83.058594 9.042969 80.128906 5.128906 Z M 80.128906 5.128906 "/>
</clipPath>
<clipPath id="clip20">
  <path d="M 60.210938 19.707031 L 66.109375 -1.015625 L 83.058594 3.878906 L 77.15625 24.601562 Z M 60.210938 19.707031 "/>
</clipPath>
<clipPath id="clip21">
  <path d="M 61.472656 2 L 81.707031 2 L 81.707031 21.875 L 61.472656 21.875 Z M 61.472656 2 "/>
</clipPath>
<clipPath id="clip22">
  <path d="M 80.128906 5.128906 C 77.203125 1.21875 71.003906 0.953125 66.277344 4.539062 C 61.550781 8.125 60.097656 14.203125 63.023438 18.117188 C 65.949219 22.027344 72.15625 22.292969 76.878906 18.707031 C 81.601562 15.121094 83.058594 9.042969 80.128906 5.128906 Z M 80.128906 5.128906 "/>
</clipPath>
<clipPath id="clip23">
  <path d="M 50.976562 9.683594 L 75.390625 -8.847656 L 92.28125 13.730469 L 67.867188 32.261719 Z M 50.976562 9.683594 "/>
</clipPath>
<clipPath id="clip24">
  <path d="M 80.128906 5.128906 C 77.203125 1.21875 71.003906 0.953125 66.277344 4.539062 C 61.550781 8.125 60.097656 14.203125 63.023438 18.117188 C 65.949219 22.027344 72.15625 22.292969 76.878906 18.707031 C 81.601562 15.121094 83.058594 9.042969 80.128906 5.128906 Z M 80.128906 5.128906 "/>
</clipPath>
<clipPath id="clip25">
  <path d="M 61.472656 2 L 81.707031 2 L 81.707031 21.875 L 61.472656 21.875 Z M 61.472656 2 "/>
</clipPath>
<clipPath id="clip26">
  <path d="M 80.128906 5.128906 C 77.203125 1.21875 71.003906 0.953125 66.277344 4.539062 C 61.550781 8.125 60.097656 14.203125 63.023438 18.117188 C 65.949219 22.027344 72.15625 22.292969 76.878906 18.707031 C 81.601562 15.121094 83.058594 9.042969 80.128906 5.128906 Z M 80.128906 5.128906 "/>
</clipPath>
<clipPath id="clip27">
  <path d="M 50.976562 9.683594 L 75.390625 -8.847656 L 92.28125 13.730469 L 67.867188 32.261719 Z M 50.976562 9.683594 "/>
</clipPath>
<clipPath id="clip28">
  <path d="M 66.140625 6 L 77.816406 6 L 77.816406 17.1875 L 66.140625 17.1875 Z M 66.140625 6 "/>
</clipPath>
<clipPath id="clip29">
  <path d="M 80.128906 5.128906 C 77.203125 1.21875 71.003906 0.953125 66.277344 4.539062 C 61.550781 8.125 60.097656 14.203125 63.023438 18.117188 C 65.949219 22.027344 72.15625 22.292969 76.878906 18.707031 C 81.601562 15.121094 83.058594 9.042969 80.128906 5.128906 Z M 80.128906 5.128906 "/>
</clipPath>
<clipPath id="clip30">
  <path d="M 50.976562 9.683594 L 75.390625 -8.847656 L 92.28125 13.730469 L 67.867188 32.261719 Z M 50.976562 9.683594 "/>
</clipPath>
</defs>
<g id="surface1">
<path style=" stroke:none;fill-rule:nonzero;fill:rgb(0%,0%,0%);fill-opacity:1;" d="M 48.605469 11.644531 L 53.078125 11.351562 C 53.179688 12.089844 53.371094 12.636719 53.671875 13.03125 C 54.167969 13.648438 54.847656 13.957031 55.75 13.957031 C 56.414062 13.957031 56.9375 13.804688 57.296875 13.476562 C 57.632812 13.21875 57.839844 12.808594 57.839844 12.382812 C 57.839844 11.96875 57.652344 11.574219 57.332031 11.320312 C 56.988281 11.011719 56.191406 10.703125 54.933594 10.429688 C 52.875 9.96875 51.398438 9.351562 50.527344 8.5625 C 49.660156 7.824219 49.167969 6.746094 49.203125 5.601562 C 49.203125 4.8125 49.441406 4.023438 49.882812 3.371094 C 50.394531 2.636719 51.089844 2.054688 51.921875 1.730469 C 52.824219 1.335938 54.082031 1.128906 55.664062 1.128906 C 57.601562 1.128906 59.082031 1.488281 60.097656 2.226562 C 61.121094 2.945312 61.730469 4.109375 61.921875 5.703125 L 57.5 5.960938 C 57.382812 5.273438 57.140625 4.777344 56.753906 4.453125 C 56.359375 4.125 55.851562 3.972656 55.1875 3.972656 C 54.644531 3.972656 54.234375 4.09375 53.960938 4.316406 C 53.707031 4.519531 53.535156 4.828125 53.554688 5.171875 C 53.554688 5.429688 53.691406 5.667969 53.894531 5.824219 C 54.117188 6.027344 54.644531 6.214844 55.476562 6.386719 C 57.535156 6.832031 58.996094 7.277344 59.894531 7.738281 C 60.796875 8.203125 61.441406 8.769531 61.835938 9.4375 C 62.242188 10.121094 62.445312 10.90625 62.429688 11.710938 C 62.429688 12.671875 62.15625 13.632812 61.613281 14.433594 C 61.054688 15.273438 60.269531 15.925781 59.351562 16.320312 C 58.386719 16.75 57.160156 16.972656 55.699219 16.972656 C 53.113281 16.972656 51.328125 16.472656 50.324219 15.464844 C 49.320312 14.453125 48.726562 13.1875 48.605469 11.644531 Z M 1.15625 16.714844 L 1.15625 1.402344 L 8.996094 1.402344 C 10.441406 1.402344 11.5625 1.523438 12.324219 1.78125 C 13.074219 2.019531 13.738281 2.519531 14.179688 3.1875 C 14.671875 3.921875 14.914062 4.777344 14.894531 5.667969 C 14.945312 7.175781 14.179688 8.613281 12.871094 9.367188 C 12.363281 9.660156 11.800781 9.863281 11.222656 9.96875 C 11.648438 10.085938 12.070312 10.289062 12.449219 10.53125 C 12.734375 10.773438 12.972656 11.042969 13.195312 11.335938 C 13.449219 11.628906 13.667969 11.953125 13.859375 12.296875 L 16.132812 16.730469 L 10.796875 16.730469 L 8.28125 12.019531 C 7.957031 11.421875 7.683594 11.027344 7.433594 10.839844 C 7.089844 10.597656 6.679688 10.480469 6.273438 10.480469 L 5.867188 10.480469 L 5.867188 16.695312 L 1.15625 16.695312 Z M 5.867188 7.601562 L 7.855469 7.601562 C 8.28125 7.570312 8.6875 7.5 9.097656 7.398438 C 9.402344 7.34375 9.675781 7.175781 9.859375 6.917969 C 10.320312 6.300781 10.253906 5.429688 9.691406 4.898438 C 9.386719 4.640625 8.789062 4.503906 7.941406 4.503906 L 5.867188 4.503906 Z M 0.0859375 29.832031 L 4.554688 29.539062 C 4.660156 30.277344 4.84375 30.824219 5.152344 31.214844 C 5.628906 31.832031 6.324219 32.160156 7.226562 32.160156 C 7.890625 32.160156 8.417969 32.007812 8.773438 31.679688 C 9.113281 31.40625 9.316406 31.011719 9.316406 30.585938 C 9.316406 30.171875 9.132812 29.777344 8.808594 29.523438 C 8.46875 29.214844 7.667969 28.90625 6.390625 28.632812 C 4.335938 28.171875 2.855469 27.554688 1.992188 26.765625 C 1.121094 26.027344 0.628906 24.953125 0.664062 23.804688 C 0.664062 23.015625 0.902344 22.226562 1.34375 21.574219 C 1.855469 20.839844 2.550781 20.257812 3.382812 19.933594 C 4.285156 19.539062 5.542969 19.332031 7.125 19.332031 C 9.0625 19.332031 10.542969 19.691406 11.5625 20.429688 C 12.582031 21.167969 13.175781 22.3125 13.367188 23.90625 L 8.941406 24.164062 C 8.824219 23.476562 8.585938 22.980469 8.195312 22.65625 C 7.820312 22.328125 7.296875 22.175781 6.632812 22.191406 C 6.089844 22.191406 5.679688 22.3125 5.40625 22.550781 C 5.132812 22.757812 4.980469 23.066406 5 23.410156 C 5 23.667969 5.132812 23.90625 5.339844 24.058594 C 5.558594 24.265625 6.089844 24.453125 6.921875 24.625 C 8.980469 25.070312 10.441406 25.515625 11.339844 25.976562 C 12.242188 26.441406 12.886719 27.003906 13.28125 27.671875 C 13.6875 28.355469 13.890625 29.144531 13.890625 29.933594 C 13.890625 30.894531 13.601562 31.832031 13.074219 32.636719 C 12.515625 33.476562 11.734375 34.128906 10.816406 34.523438 C 9.84375 34.953125 8.621094 35.175781 7.160156 35.175781 C 4.574219 35.175781 2.789062 34.675781 1.789062 33.667969 C 0.785156 32.636719 0.222656 31.371094 0.0859375 29.832031 Z M 0.0859375 29.832031 "/>
<path style=" stroke:none;fill-rule:nonzero;fill:rgb(0%,0%,0%);fill-opacity:1;" d="M 22.695312 28.632812 L 26.8125 29.882812 C 26.589844 30.925781 26.132812 31.917969 25.503906 32.792969 C 24.925781 33.5625 24.160156 34.164062 23.292969 34.558594 C 22.40625 34.953125 21.285156 35.15625 19.929688 35.15625 C 18.277344 35.15625 16.917969 34.914062 15.878906 34.4375 C 14.828125 33.957031 13.925781 33.101562 13.160156 31.882812 C 12.394531 30.671875 12.023438 29.109375 12.023438 27.210938 C 12.023438 24.675781 12.683594 22.722656 14.027344 21.371094 C 15.371094 20.019531 17.257812 19.332031 19.707031 19.332031 C 21.628906 19.332031 23.121094 19.726562 24.230469 20.5 C 25.316406 21.285156 26.132812 22.484375 26.675781 24.09375 L 22.527344 25.019531 C 22.425781 24.65625 22.269531 24.296875 22.066406 23.988281 C 21.8125 23.632812 21.488281 23.359375 21.097656 23.152344 C 20.710938 22.945312 20.265625 22.859375 19.824219 22.859375 C 18.753906 22.859375 17.9375 23.289062 17.378906 24.164062 C 16.953125 24.796875 16.730469 25.804688 16.730469 27.175781 C 16.730469 28.871094 16.984375 30.035156 17.496094 30.671875 C 18.007812 31.300781 18.71875 31.609375 19.652344 31.609375 C 20.558594 31.609375 21.234375 31.355469 21.695312 30.859375 C 22.152344 30.328125 22.492188 29.589844 22.695312 28.632812 Z M 32.300781 19.589844 L 36.996094 19.589844 L 36.996094 24.953125 L 42.128906 24.953125 L 42.128906 19.589844 L 46.855469 19.589844 L 46.855469 34.898438 L 42.128906 34.898438 L 42.128906 28.703125 L 36.996094 28.703125 L 36.996094 34.898438 L 32.300781 34.898438 Z M 32.300781 19.589844 "/>
<path style=" stroke:none;fill-rule:nonzero;fill:rgb(0%,0%,0%);fill-opacity:1;" d="M 46.210938 27.246094 C 46.210938 24.742188 46.90625 22.792969 48.285156 21.40625 C 49.660156 20.019531 51.601562 19.316406 54.066406 19.316406 C 56.597656 19.316406 58.539062 20 59.914062 21.371094 C 61.292969 22.742188 61.972656 24.65625 61.972656 27.125 C 61.972656 28.921875 61.664062 30.378906 61.070312 31.523438 C 60.492188 32.65625 59.59375 33.582031 58.484375 34.199219 C 57.34375 34.828125 55.933594 35.15625 54.25 35.15625 C 52.535156 35.15625 51.125 34.882812 50 34.335938 C 48.847656 33.753906 47.890625 32.84375 47.265625 31.730469 C 46.566406 30.53125 46.210938 29.042969 46.210938 27.246094 Z M 50.902344 27.261719 C 50.902344 28.800781 51.195312 29.917969 51.753906 30.601562 C 52.316406 31.269531 53.097656 31.609375 54.082031 31.609375 C 55.085938 31.609375 55.867188 31.285156 56.425781 30.617188 C 56.988281 29.949219 57.261719 28.769531 57.261719 27.058594 C 57.261719 25.621094 56.972656 24.558594 56.394531 23.90625 C 55.816406 23.238281 55.035156 22.914062 54.046875 22.914062 C 53.179688 22.878906 52.347656 23.253906 51.769531 23.921875 C 51.195312 24.589844 50.902344 25.703125 50.902344 27.261719 Z M 66.785156 27.246094 C 66.785156 24.742188 67.480469 22.792969 68.855469 21.40625 C 70.234375 20.019531 72.171875 19.316406 74.636719 19.316406 C 77.171875 19.316406 79.125 20 80.488281 21.371094 C 81.84375 22.742188 82.542969 24.65625 82.542969 27.125 C 82.542969 28.921875 82.238281 30.378906 81.640625 31.523438 C 81.0625 32.65625 80.160156 33.582031 79.058594 34.199219 C 77.917969 34.828125 76.507812 35.15625 74.824219 35.15625 C 73.105469 35.15625 71.695312 34.882812 70.574219 34.335938 C 69.417969 33.753906 68.464844 32.84375 67.835938 31.730469 C 67.140625 30.53125 66.785156 29.042969 66.785156 27.246094 Z M 71.472656 27.261719 C 71.472656 28.800781 71.761719 29.917969 72.324219 30.601562 C 72.886719 31.269531 73.667969 31.609375 74.652344 31.609375 C 75.65625 31.609375 76.441406 31.285156 77 30.617188 C 77.5625 29.949219 77.832031 28.769531 77.832031 27.058594 C 77.832031 25.621094 77.542969 24.558594 76.964844 23.90625 C 76.390625 23.238281 75.605469 22.914062 74.621094 22.914062 C 73.753906 22.878906 72.902344 23.253906 72.34375 23.921875 C 71.761719 24.589844 71.472656 25.703125 71.472656 27.261719 Z M 71.472656 27.261719 "/>
<path style=" stroke:none;fill-rule:nonzero;fill:rgb(0%,0%,0%);fill-opacity:1;" d="M 82.046875 19.589844 L 86.742188 19.589844 L 86.742188 31.132812 L 94.070312 31.132812 L 94.070312 34.898438 L 82.035156 34.898438 L 82.035156 19.589844 Z M 82.046875 19.589844 "/>
<path style=" stroke:none;fill-rule:nonzero;fill:rgb(100%,100%,100%);fill-opacity:1;" d="M 80.128906 5.128906 C 77.203125 1.21875 71.003906 0.953125 66.277344 4.539062 C 61.550781 8.125 60.097656 14.203125 63.023438 18.117188 C 65.949219 22.027344 72.15625 22.292969 76.878906 18.707031 C 81.601562 15.121094 83.058594 9.042969 80.128906 5.128906 Z M 80.128906 5.128906 "/>
<g clip-path="url(#clip1)" clip-rule="nonzero">
<g clip-path="url(#clip2)" clip-rule="nonzero">
<path style=" stroke:none;fill-rule:nonzero;fill:rgb(100%,100%,100%);fill-opacity:1;" d="M 50.976562 9.683594 L 75.390625 -8.847656 L 92.28125 13.730469 L 67.867188 32.261719 Z M 50.976562 9.683594 "/>
<g clip-path="url(#clip3)" clip-rule="nonzero">
<path style=" stroke:none;fill-rule:nonzero;fill:rgb(100%,100%,100%);fill-opacity:1;" d="M 80.128906 5.128906 C 77.203125 1.21875 71.003906 0.953125 66.277344 4.539062 C 61.550781 8.125 60.097656 14.203125 63.023438 18.117188 C 65.949219 22.027344 72.15625 22.292969 76.878906 18.707031 C 81.601562 15.121094 83.058594 9.042969 80.128906 5.128906 Z M 80.128906 5.128906 "/>
<g clip-path="url(#clip4)" clip-rule="nonzero">
<path style=" stroke:none;fill-rule:nonzero;fill:rgb(100%,100%,100%);fill-opacity:1;" d="M 57.773438 11.191406 L 74.871094 -1.785156 L 85.476562 12.394531 L 68.382812 25.371094 Z M 57.773438 11.191406 "/>
<g clip-path="url(#clip5)" clip-rule="nonzero">
<path style="fill-rule:nonzero;fill:rgb(100%,100%,100%);fill-opacity:1;stroke-width:4;stroke-linecap:butt;stroke-linejoin:miter;stroke:rgb(0%,0%,0%);stroke-opacity:1;stroke-miterlimit:10;" d="M 483.490435 67.886269 C 483.489024 39.293702 455.302424 16.110513 420.497269 16.102763 C 385.692115 16.095012 357.504853 39.297541 357.506264 67.890109 C 357.493947 96.500894 385.717246 119.711738 420.504051 119.705661 C 455.290856 119.699584 483.496467 96.510882 483.490435 67.886269 Z M 483.490435 67.886269 " transform="matrix(0.135778,-0.103059,0.10232,0.136759,7.535489,45.673045)"/>
</g>
</g>
</g>
</g>
</g>
<g clip-path="url(#clip6)" clip-rule="nonzero">
<g clip-path="url(#clip7)" clip-rule="nonzero">
<g clip-path="url(#clip8)" clip-rule="nonzero">
<g clip-path="url(#clip9)" clip-rule="nonzero">
<g clip-path="url(#clip10)" clip-rule="nonzero">
<path style="fill:none;stroke-width:4;stroke-linecap:butt;stroke-linejoin:miter;stroke:rgb(0%,0%,0%);stroke-opacity:1;stroke-miterlimit:10;" d="M 357.794246 17.007571 L 483.696029 16.996614 L 483.70003 120.681921 L 357.798247 120.692879 Z M 357.794246 17.007571 " transform="matrix(0.135779,-0.103057,0.102318,0.136761,7.452168,45.738648)"/>
</g>
</g>
</g>
</g>
</g>
<g clip-path="url(#clip11)" clip-rule="nonzero">
<g clip-path="url(#clip12)" clip-rule="nonzero">
<g clip-path="url(#clip13)" clip-rule="nonzero">
<g clip-path="url(#clip14)" clip-rule="nonzero">
<path style="fill:none;stroke-width:4;stroke-linecap:butt;stroke-linejoin:miter;stroke:rgb(0%,0%,0%);stroke-opacity:1;stroke-miterlimit:10;" d="M 483.490435 67.886269 C 483.489024 39.293702 455.302424 16.110513 420.497269 16.102763 C 385.692115 16.095012 357.504853 39.297541 357.506264 67.890109 C 357.493947 96.500894 385.717246 119.711738 420.504051 119.705661 C 455.290856 119.699584 483.496467 96.510882 483.490435 67.886269 Z M 483.490435 67.886269 " transform="matrix(0.135778,-0.103059,0.10232,0.136759,7.535489,45.673045)"/>
<path style=" stroke:none;fill-rule:nonzero;fill:rgb(100%,100%,100%);fill-opacity:1;" d="M 57.773438 11.191406 L 74.871094 -1.785156 L 85.476562 12.394531 L 68.382812 25.371094 Z M 57.773438 11.191406 "/>
<g clip-path="url(#clip15)" clip-rule="nonzero">
<path style="fill-rule:nonzero;fill:rgb(100%,100%,100%);fill-opacity:1;stroke-width:4;stroke-linecap:butt;stroke-linejoin:miter;stroke:rgb(0%,0%,0%);stroke-opacity:1;stroke-miterlimit:10;" d="M 483.490435 67.886269 C 483.489024 39.293702 455.302424 16.110513 420.497269 16.102763 C 385.692115 16.095012 357.504853 39.297541 357.506264 67.890109 C 357.493947 96.500894 385.717246 119.711738 420.504051 119.705661 C 455.290856 119.699584 483.496467 96.510882 483.490435 67.886269 Z M 483.490435 67.886269 " transform="matrix(0.135778,-0.103059,0.10232,0.136759,7.535489,45.673045)"/>
</g>
</g>
</g>
</g>
</g>
<g clip-path="url(#clip16)" clip-rule="nonzero">
<g clip-path="url(#clip17)" clip-rule="nonzero">
<g clip-path="url(#clip18)" clip-rule="nonzero">
<g clip-path="url(#clip19)" clip-rule="nonzero">
<g clip-path="url(#clip20)" clip-rule="nonzero">
<path style="fill:none;stroke-width:4;stroke-linecap:butt;stroke-linejoin:miter;stroke:rgb(0%,0%,0%);stroke-opacity:1;stroke-miterlimit:10;" d="M 357.794246 17.007571 L 483.696029 16.996614 L 483.70003 120.681921 L 357.798247 120.692879 Z M 357.794246 17.007571 " transform="matrix(0.135779,-0.103057,0.102318,0.136761,7.452168,45.738648)"/>
</g>
</g>
</g>
</g>
</g>
<g clip-path="url(#clip21)" clip-rule="nonzero">
<g clip-path="url(#clip22)" clip-rule="nonzero">
<g clip-path="url(#clip23)" clip-rule="nonzero">
<g clip-path="url(#clip24)" clip-rule="nonzero">
<path style="fill:none;stroke-width:4;stroke-linecap:butt;stroke-linejoin:miter;stroke:rgb(0%,0%,0%);stroke-opacity:1;stroke-miterlimit:10;" d="M 330.900448 -14.188935 L 510.710224 -14.190155 L 510.701949 150.897409 L 330.892173 150.898629 Z M 330.900448 -14.188935 " transform="matrix(0.135778,-0.103059,0.10232,0.136759,7.499417,45.726457)"/>
</g>
</g>
</g>
</g>
<g clip-path="url(#clip25)" clip-rule="nonzero">
<g clip-path="url(#clip26)" clip-rule="nonzero">
<g clip-path="url(#clip27)" clip-rule="nonzero">
<path style="fill:none;stroke-width:4;stroke-linecap:butt;stroke-linejoin:miter;stroke:rgb(0%,0%,0%);stroke-opacity:1;stroke-miterlimit:10;" d="M 483.490435 67.886269 C 483.489024 39.293702 455.302424 16.110513 420.497269 16.102763 C 385.692115 16.095012 357.504853 39.297541 357.506264 67.890109 C 357.493947 96.500894 385.717246 119.711738 420.504051 119.705661 C 455.290856 119.699584 483.496467 96.510882 483.490435 67.886269 Z M 483.490435 67.886269 " transform="matrix(0.135778,-0.103059,0.10232,0.136759,7.535489,45.673045)"/>
</g>
</g>
</g>
<g clip-path="url(#clip28)" clip-rule="nonzero">
<g clip-path="url(#clip29)" clip-rule="nonzero">
<g clip-path="url(#clip30)" clip-rule="nonzero">
<path style=" stroke:none;fill-rule:nonzero;fill:rgb(0%,0%,0%);fill-opacity:1;" d="M 66.800781 10.5 L 68.5 9.296875 L 70.589844 12.296875 C 70.949219 12.773438 71.21875 13.289062 71.425781 13.855469 C 71.542969 14.28125 71.511719 14.742188 71.339844 15.15625 C 71.117188 15.667969 70.757812 16.097656 70.285156 16.40625 C 69.722656 16.800781 69.25 17.023438 68.839844 17.089844 C 68.449219 17.160156 68.039062 17.089844 67.664062 16.917969 C 67.257812 16.714844 66.902344 16.421875 66.628906 16.046875 L 68.089844 14.675781 C 68.210938 14.863281 68.363281 15.035156 68.535156 15.171875 C 68.652344 15.257812 68.789062 15.3125 68.941406 15.3125 C 69.058594 15.3125 69.179688 15.257812 69.265625 15.1875 C 69.433594 15.085938 69.554688 14.878906 69.539062 14.675781 C 69.484375 14.382812 69.367188 14.09375 69.179688 13.871094 Z M 71.898438 12.398438 L 73.445312 11.167969 C 73.617188 11.371094 73.839844 11.523438 74.074219 11.609375 C 74.417969 11.710938 74.773438 11.644531 75.0625 11.421875 C 75.265625 11.285156 75.4375 11.097656 75.503906 10.859375 C 75.605469 10.550781 75.4375 10.207031 75.128906 10.105469 C 75.078125 10.085938 75.027344 10.066406 74.980469 10.066406 C 74.773438 10.050781 74.417969 10.136719 73.890625 10.359375 C 73.019531 10.722656 72.34375 10.859375 71.832031 10.804688 C 71.339844 10.753906 70.882812 10.5 70.609375 10.066406 C 70.402344 9.777344 70.300781 9.4375 70.285156 9.09375 C 70.285156 8.699219 70.386719 8.304688 70.609375 7.980469 C 70.929688 7.515625 71.320312 7.121094 71.800781 6.816406 C 72.511719 6.320312 73.140625 6.078125 73.683594 6.078125 C 74.226562 6.078125 74.738281 6.335938 75.214844 6.867188 L 73.683594 8.085938 C 73.378906 7.6875 72.800781 7.601562 72.410156 7.910156 L 72.359375 7.960938 C 72.1875 8.066406 72.070312 8.21875 72.003906 8.40625 C 71.949219 8.546875 71.984375 8.699219 72.070312 8.820312 C 72.136719 8.90625 72.238281 8.972656 72.359375 8.972656 C 72.496094 8.992188 72.730469 8.921875 73.074219 8.769531 C 73.925781 8.40625 74.566406 8.203125 75.011719 8.132812 C 75.386719 8.066406 75.773438 8.097656 76.132812 8.253906 C 76.457031 8.390625 76.730469 8.628906 76.914062 8.921875 C 77.152344 9.265625 77.289062 9.675781 77.308594 10.105469 C 77.320312 10.550781 77.203125 10.976562 76.964844 11.351562 C 76.660156 11.816406 76.269531 12.210938 75.8125 12.519531 C 74.875 13.167969 74.109375 13.441406 73.5 13.339844 C 72.835938 13.238281 72.292969 12.894531 71.898438 12.398438 Z M 71.898438 12.398438 "/>
</g>
</g>
</g>
</g>
</svg>
